<?xml version="1.0" encoding="utf-8"?>
<!-- Generator: Adobe Illustrator 16.0.4, SVG Export Plug-In . SVG Version: 6.00 Build 0)  -->
<!DOCTYPE svg PUBLIC "-//W3C//DTD SVG 1.1//EN" "http://www.w3.org/Graphics/SVG/1.1/DTD/svg11.dtd">
<svg version="1.1" id="Layer_1" xmlns="http://www.w3.org/2000/svg" xmlns:xlink="http://www.w3.org/1999/xlink" x="0px" y="0px"
	 width="350px" height="349.796px" viewBox="-17 -17 350 349.796" enable-background="new -17 -17 350 349.796"
	 xml:space="preserve">
<circle fill="#07CCA4" cx="158" cy="158" r="175"/>
<path fill="#2EA284" d="M332.934,162.762c0-14.503-0.645-30.449-4.305-43.791l-66.334-30.946l-0.021,119.206l0.498,14.957
	l-79.824-1.494l-78.724-12.465L48.446,224.57l187.129,90.337C284,290.5,332.934,233.151,332.934,162.762z"/>
<g>
	<path fill="#FFFFFF" d="M114.229,180.932c-6.15-0.981-12.529-1.479-18.958-1.479c-7.608,0-15.591,0.698-23.729,2.073
		c-0.865,0.148-1.649,0.433-2.411,0.707c-0.275,0.102-0.548,0.201-0.815,0.287l-0.633,0.201l-0.316,0.584
		c-0.132,0.25-0.267,0.473-0.4,0.694c-0.312,0.522-0.635,1.062-0.828,1.705c-0.506,1.69-0.256,3.331,0.704,4.622
		c1.038,1.393,2.8,2.193,4.838,2.193c0.462,0,0.94-0.043,1.42-0.123c7.779-1.295,15.046-1.924,22.214-1.924
		c6.047,0,12.029,0.471,17.777,1.402c0.335,0.055,0.707,0.081,1.077,0.081c0.717,0,2.49-0.118,3.455-1.22
		c1.089-1.243,2.215-3.233,2.113-5.092C119.523,181.777,115.677,181.162,114.229,180.932z"/>
	<path fill="#FFFFFF" d="M243.249,122.624c-0.717-0.636-1.792-0.959-3.192-0.959c-0.688,0-1.326,0.078-1.74,0.143
		c-8.912,1.398-15.746,2.021-22.159,2.021c-2.538,0-5.034-0.103-7.418-0.309c-2.275-0.196-4.585-0.485-6.857-0.771
		c-1.473-0.185-2.996-0.376-4.517-0.542c-2.997-0.326-5.28,1-5.948,3.43c-0.329,1.19-0.218,2.38-0.108,3.564
		c0.039,0.432,0.08,0.88,0.092,1.299l0.031,1.181l1.129,0.346c0.549,0.169,1.022,0.34,1.479,0.505
		c0.976,0.352,1.815,0.655,2.776,0.721c2.023,0.14,4.051,0.301,6.088,0.463l0.104,0.008c5.645,0.449,11.479,0.914,17.246,0.914
		c0.319,0,0.639-0.001,0.96-0.004c6.022-0.054,12.065-1.021,17.91-1.957l1.595-0.254c2.082-0.331,4.18-2.505,4.76-4.253
		C246.109,126.271,244.557,123.784,243.249,122.624z"/>
	<path fill="#FFFFFF" d="M162.646,131.977c1.235,0.548,2.302,1.03,2.998,1.71c1.729,1.689,3.145,3.994,4.391,6.03
		c1.117,1.818,2.775,3.908,5.713,3.908c0.5,0,1.027-0.065,1.564-0.192c3.274-0.776,5.196-3.122,5.564-6.784
		c0.456-4.533-1.332-8.411-5.469-11.852c-3.854-3.208-8.491-5.065-14.57-5.831c-0.146-1.865-0.627-4.733-4.227-4.901
		c-0.113-0.005-0.227-0.008-0.334-0.008c-3.936,0-4.458,3.084-4.607,4.759c-1.057,0.333-2.106,0.643-3.129,0.945
		c-3.001,0.884-5.837,1.72-8.536,3.042c-5.898,2.893-9.679,7.57-10.648,13.172c-0.972,5.622,1.131,11.576,5.77,16.336
		c3.47,3.562,7.904,6.308,13.95,8.642c0.206,0.08,0.454,0.266,0.619,0.412c-0.279,4.953-0.663,10.002-1.035,14.889l-0.17,2.247
		c-3.776-0.688-5.285-2.3-6.309-6.554c-0.074-0.312-0.14-0.631-0.209-0.979c-0.255-1.25-0.518-2.544-1.274-3.69
		c-0.587-0.893-2.191-3.045-4.353-3.729c-0.787-0.248-1.575-0.373-2.345-0.373c-1.794,0-3.385,0.664-4.604,1.92
		c-1.509,1.557-2.293,3.889-2.208,6.566c0.177,5.656,2.555,10.549,7.068,14.543c3.591,3.174,8.023,4.904,13.916,5.424l0.011,0.262
		c0.048,1.143,0.095,2.239,0.147,3.338c0.137,2.869,1.879,4.651,4.545,4.651c0.071,0,0.144-0.002,0.213-0.006
		c1.414-0.046,2.537-0.517,3.337-1.397c0.855-0.936,1.242-2.223,1.149-3.824c-0.056-0.984-0.115-1.971-0.166-2.825
		c1.188-0.369,2.354-0.711,3.403-1.019c3.319-0.975,6.453-1.891,9.459-3.272c8.611-3.959,11.935-10.539,10.158-20.117
		c-1.109-5.983-3.953-10.525-8.449-13.499c-2.291-1.515-4.762-2.736-7.15-3.919c-1.393-0.688-2.832-1.4-4.213-2.163
		c-0.489-0.27-0.854-0.644-1.001-0.827c0.194-4.183,0.521-8.426,0.866-12.915L162.646,131.977z M153.229,144.572
		c-4.071-1.105-6.622-3.948-6.408-7.224c0.187-2.869,2.989-5.044,7.043-5.532L153.229,144.572z M167.318,172.76
		c-0.521,3.116-4.021,5.651-8.102,5.956l0.85-14.634C165.238,165.837,167.938,169.049,167.318,172.76z"/>
	<path fill="#FFFFFF" d="M267.742,92.232c-3.403-3.748-7.555-5.648-12.34-5.648c-3.123,0-6.457,0.839-9.901,2.495
		c-9.298,4.471-19.556,6.737-30.485,6.737c-1.104,0-2.236-0.023-3.371-0.068c-14.623-0.592-28.357-4.125-43.514-8.335
		c-2.14-0.595-4.279-1.196-6.421-1.798c-16.26-4.57-33.072-9.295-50.373-10.967c-4.183-0.404-8.343-0.609-12.364-0.609
		c-16.971,0-32.918,3.673-47.399,10.915c-6.407,3.205-9.772,8.45-10.001,15.59c-0.055,1.696-0.075,3.422-0.096,5.119
		c-0.009,0.768-0.018,1.536-0.031,2.304l-0.392,24.585c-0.396,24.828-0.806,50.501-1.244,75.89
		c-0.088,5.162,1.337,9.305,4.361,12.656c3.442,3.816,7.621,5.75,12.419,5.75c3.15,0,6.527-0.861,10.039-2.556
		c9.189-4.437,19.401-6.685,30.353-6.685c0.995,0,1.997,0.02,2.979,0.055c14.424,0.508,28.495,4.105,41.671,7.748
		c2.732,0.756,5.462,1.525,8.192,2.294c16.453,4.633,33.464,9.425,50.973,11.094c4.176,0.397,8.324,0.601,12.33,0.601
		c15.227,0,29.572-2.945,42.643-8.76c2.312-1.031,4.525-2.224,6.307-3.186c0.681-0.366,1.298-0.699,1.831-0.975l0.289-0.147
		l0.223-0.235c4.092-4.313,5.89-8.14,6.013-12.793c0.072-2.798,0.112-5.623,0.149-8.379l0.007-0.48
		c0.014-0.979,0.027-1.954,0.043-2.932L271,178.318c0.378-23.886,0.771-48.586,1.203-73.179
		C272.294,99.86,270.836,95.638,267.742,92.232z M252.939,107.004l-0.412,25.811c-0.407,25.287-0.826,51.436-1.205,77.146
		c-0.021,1.303-0.129,1.605-1.34,2.182c-11.463,5.42-23.768,8.168-36.574,8.168c-6.209,0-12.653-0.646-19.156-1.922
		c-12.911-2.531-25.913-5.955-38.507-9.271c-3.135-0.826-6.269-1.652-9.404-2.464c-14.234-3.689-28.952-7.506-44.411-8.192
		c-1.609-0.071-3.223-0.108-4.798-0.108c-13.126,0-25.437,2.541-36.588,7.549c-0.484,0.219-0.969,0.432-1.474,0.652l0.417-26.176
		c0.403-25.203,0.821-51.263,1.199-77.192c0.017-1.12,0.141-1.319,1.11-1.781c11.556-5.505,23.945-8.296,36.823-8.296
		c6.131,0,12.481,0.634,18.876,1.885c13.008,2.544,26.092,5.988,38.746,9.319l0.181,0.047c3.348,0.881,6.695,1.761,10.045,2.627
		c13.127,3.392,28.004,7.237,43.338,7.964c1.7,0.08,3.406,0.121,5.069,0.121c13.157,0,25.554-2.571,36.844-7.643l1.226-0.552
		C252.941,106.92,252.939,106.962,252.939,107.004z"/>
</g>
</svg>
